<svg xmlns="http://www.w3.org/2000/svg" width="70" height="70" fill="none" viewBox="0 0 70 70"><g filter="url(#filter0_d_83_116)"><circle cx="34.8" cy="21.8" r="16.8" fill="#6A4029"/></g><path fill="#FFBA33" d="M34.8 5C25.5215 5 18 12.5215 18 21.8C18 31.0785 25.5215 38.6 34.8 38.6C44.0785 38.6 51.6 31.0785 51.6 21.8C51.6 12.5215 44.0785 5 34.8 5ZM38.7795 16.6095H36.2543C35.955 16.6095 35.6225 17.0033 35.6225 17.5265V19.35H38.7813L38.3035 21.9505H35.6225V29.7573H32.6423V21.9505H29.9385V19.35H32.6423V17.8205C32.6423 15.626 34.1648 13.8428 36.2543 13.8428H38.7795V16.6095Z"/><defs><filter id="filter0_d_83_116" width="69.6" height="69.6" x="0" y="0" color-interpolation-filters="sRGB" filterUnits="userSpaceOnUse"><feFlood flood-opacity="0" result="BackgroundImageFix"/><feColorMatrix in="SourceAlpha" result="hardAlpha" type="matrix" values="0 0 0 0 0 0 0 0 0 0 0 0 0 0 0 0 0 0 127 0"/><feOffset dy="13"/><feGaussianBlur stdDeviation="9"/><feColorMatrix type="matrix" values="0 0 0 0 0.0658854 0 0 0 0 0.0730469 0 0 0 0 0.1375 0 0 0 0.08 0"/><feBlend in2="BackgroundImageFix" mode="normal" result="effect1_dropShadow_83_116"/><feBlend in="SourceGraphic" in2="effect1_dropShadow_83_116" mode="normal" result="shape"/></filter></defs></svg>